<svg id="visual" style="width 100%; height=100%;" viewBox="0 0 900 600" width="900" height="600" xmlns="http://www.w3.org/2000/svg" xmlns:xlink="http://www.w3.org/1999/xlink" version="1.1"><rect x="0" y="0" width="900" height="600" fill="#000b33"></rect><path d="M0 492L50 546L100 448L150 524L200 566L250 569L300 525L350 534L400 544L450 570L500 470L550 510L600 542L650 470L700 482L750 475L800 508L850 462L900 506L900 601L850 601L800 601L750 601L700 601L650 601L600 601L550 601L500 601L450 601L400 601L350 601L300 601L250 601L200 601L150 601L100 601L50 601L0 601Z" fill="#5d00ff" stroke-linecap="square" stroke-linejoin="bevel"></path></svg>